<?xml version="1.0" encoding="UTF-8" standalone="no"?>
<svg
   viewBox="0 0 23.972249 25.718229"
   version="1.1"
   id="svg1"
   sodipodi:docname="mastodon.svg"
   width="23.972248"
   height="25.718227"
   inkscape:version="1.3.2 (091e20e, 2023-11-25)"
   xmlns:inkscape="http://www.inkscape.org/namespaces/inkscape"
   xmlns:sodipodi="http://sodipodi.sourceforge.net/DTD/sodipodi-0.dtd"
   xmlns="http://www.w3.org/2000/svg"
   xmlns:svg="http://www.w3.org/2000/svg">
  <defs
     id="defs1" />
  <sodipodi:namedview
     id="namedview1"
     pagecolor="#505050"
     bordercolor="#ffffff"
     borderopacity="1"
     inkscape:showpageshadow="0"
     inkscape:pageopacity="0"
     inkscape:pagecheckerboard="1"
     inkscape:deskcolor="#505050"
     inkscape:zoom="9.8333333"
     inkscape:cx="9.3559322"
     inkscape:cy="4.0677966"
     inkscape:window-width="1312"
     inkscape:window-height="449"
     inkscape:window-x="0"
     inkscape:window-y="35"
     inkscape:window-maximized="0"
     inkscape:current-layer="svg1" />
  <path
     d="m 23.469987,15.415428 c -0.359689,1.811314 -3.13447,3.802475 -6.384555,4.187858 -1.682851,0.192692 -3.340009,0.385384 -5.099937,0.308297 C 9.095102,19.770248 6.8470187,19.217892 6.8470187,19.217892 v 0.796462 c 0.4110777,2.851854 2.851854,3.018857 5.1770143,3.108778 2.338007,0.06427 4.41909,-0.590922 4.41909,-0.590922 l 0.102767,2.119619 c 0,0 -1.644312,0.873543 -4.560397,1.040544 C 10.379721,25.782295 8.3757161,25.653798 6.0505559,25.05006 1.0148491,23.701223 0.14130801,18.318666 0.01284598,12.846192 L 0,8.4399483 C 0,2.864703 3.6354714,1.233232 3.6354714,1.233232 5.4981694,0.385388 8.6583318,0 11.946956,0 h 0.07707 c 3.288625,0 6.448788,0.385386 8.311484,1.233232 0,0 3.635474,1.631471 3.635474,7.2067163 0,0 0.05138,4.1236257 -0.501002,6.9754797 M 19.693208,8.8767199 c 0,-1.3873922 -0.385386,-2.4536217 -1.091926,-3.2886263 C 17.881896,4.778782 16.931278,4.35486 15.736582,4.35486 c -1.361696,0 -2.402237,0.526666 -3.108777,1.5800789 L 11.985495,7.0654061 11.343186,5.9349389 C 10.623798,4.881553 9.5961032,4.35486 8.2215609,4.35486 7.0397117,4.35486 6.0890938,4.778765 5.3568613,5.5880936 4.6503205,6.4230982 4.2777809,7.4893277 4.2777809,8.8767199 v 6.7570941 h 2.6977 V 9.0694112 c 0,-1.3616973 0.5780783,-2.0810815 1.7470819,-2.0810815 1.2846192,0 1.9269282,0.8349994 1.9269282,2.4793146 v 3.5840837 h 2.659161 V 9.4676443 c 0,-1.6443152 0.642311,-2.4793146 1.939775,-2.4793146 1.156156,0 1.734236,0.7193842 1.734236,2.0810815 v 6.5644028 h 2.710545 z"
     id="path1"
     style="fill:#cccccc;fill-opacity:1;stroke-width:1.28462" />
</svg>
